#!OML:ASF I:\Actors\actors\Patient Classification 2\Patient 1\Session 1\actor1.ASF
:FULLY-SPECIFIED
:DEGREES
849
root -1.0385 18.1184 6.07459 0.193858 -3.66483 -4.7652
lowerback 3.76372 0.657912 2.43327
upperback -1.24124 1.0466 1.39052
thorax -3.372 0.484556 -0.00179789
lowerneck -10.7888 -1.00566 -0.794094
upperneck 17.276 -1.51056 1.46009
head 7.08053 -0.649834 0.464467
rclavicle -1.6027e-015 -6.95746e-016
rhumerus -47.6186 -4.46992 -84.7992
rradius 42.3402
rwrist 13.2321
rhand -7.98211 -26.4189
rfingers 7.12502
rthumb 17.9261 304.387
lclavicle -1.6027e-015 -6.95746e-016
lhumerus -43.2561 4.46124 89.4099
lradius 40.7408
lwrist -6.9471
lhand -7.48817 -28.7095
lfingers 7.12502
lthumb 18.4013 0.440118
rfemur 0 0 0
rtibia 0
rfoot 0 0
rtoes 0
lfemur 19.2565 -8.48309 -12.7165
ltibia -18.2071
lfoot -5.86017 22.6791
ltoes -8.22386
850
root -1.03719 18.1172 6.06641 0.180474 -3.64961 -4.76958
lowerback 3.79327 0.644873 2.42394
upperback -1.25458 1.03131 1.4257
thorax -3.40356 0.477149 0.0402033
lowerneck -10.7725 -0.982781 -0.763764
upperneck 17.3208 -1.47457 1.40149
head 7.09105 -0.635664 0.443868
rclavicle -1.00899e-014 -1.30204e-014
rhumerus -47.7608 -4.39281 -84.8986
rradius 42.3816
rwrist 13.2202
rhand -8.05851 -26.3354
rfingers 7.12502
rthumb 17.8525 304.464
lclavicle -1.00899e-014 -1.30204e-014
lhumerus -43.4112 4.46248 89.4532
lradius 40.6288
lwrist -7.20834
lhand -7.38321 -28.8069
lfingers 7.12502
lthumb 18.5022 0.333152
rfemur 0 0 0
rtibia 0
rfoot 0 0
rtoes 0
lfemur 19.2508 -8.5299 -12.7151
ltibia -18.2088
lfoot -5.89794 22.7131
ltoes -7.82369
851
root -1.03631 18.118 6.05768 0.193666 -3.63651 -4.76595
lowerback 3.80284 0.625882 2.40926
upperback -1.26789 1.00677 1.45128
thorax -3.42385 0.465268 0.0761891
lowerneck -10.7956 -0.948967 -0.786033
upperneck 17.3591 -1.42591 1.40899
head 7.10716 -0.61284 0.454389
rclavicle 1.11661e-015 3.08116e-015
rhumerus -47.8669 -4.27855 -85.0264
rradius 42.36
rwrist 13.306
rhand -8.2686 -26.2031
rfingers 7.12502
rthumb 17.6504 304.578
lclavicle 1.11661e-015 3.08116e-015
lhumerus -43.5819 4.54982 89.4412
lradius 40.5704
lwrist -7.54266
lhand -7.23753 -28.9171
lfingers 7.12502
lthumb 18.6424 0.209564
rfemur 0 0 0
rtibia 0
rfoot 0 0
rtoes 0
lfemur 19.1909 -8.51068 -12.7081
ltibia -18.1889
lfoot -5.8513 22.6921
ltoes -7.89657
852
root -1.03618 18.1212 6.0478 0.248553 -3.60395 -4.77015
lowerback 3.80482 0.605515 2.40787
upperback -1.30282 0.980948 1.46321
thorax -3.46174 0.452046 0.0907914
lowerneck -10.7857 -0.930313 -0.800616
upperneck 17.3538 -1.39955 1.41936
head 7.10356 -0.600291 0.462652
rclavicle 1.11739e-014 4.07509e-015
rhumerus -47.9425 -4.19852 -85.1793
rradius 42.3059
rwrist 13.3505
rhand -8.38715 -26.0897
rfingers 7.12502
rthumb 17.5363 304.681
lclavicle 1.11739e-014 4.07509e-015
lhumerus -43.7655 4.62376 89.3964
lradius 40.5306
lwrist -7.82889
lhand -7.1896 -29.0282
lfingers 7.12502
lthumb 18.6885 0.0940352
rfemur 0 0 0
rtibia 0
rfoot 0 0
rtoes 0
lfemur 19.0632 -8.44389 -12.6709
ltibia -18.158
lfoot -5.78094 22.6055
ltoes -8.18978
853
root -1.03487 18.1241 6.0389 0.294227 -3.57683 -4.73141
lowerback 3.78219 0.597594 2.39975
upperback -1.31997 0.968962 1.4437
thorax -3.46666 0.445908 0.0762206
lowerneck -10.7451 -0.926754 -0.766665
upperneck 17.3047 -1.4015 1.42528
head 7.08031 -0.598873 0.458932
rclavicle -1.96906e-014 -6.65929e-015
rhumerus -47.9957 -4.19418 -85.3239
rradius 42.2997
rwrist 13.4112
rhand -8.28904 -25.9327
rfingers 7.12502
rthumb 17.6307 304.847
lclavicle -1.96906e-014 -6.65929e-015
lhumerus -43.8775 4.67176 89.3362
lradius 40.4696
lwrist -7.96776
lhand -7.15551 -29.0966
lfingers 7.12502
lthumb 18.7213 0.022499
rfemur 0 0 0
rtibia 0
rfoot 0 0
rtoes 0
lfemur 18.9479 -8.45053 -12.7004
ltibia -18.124
lfoot -5.77653 22.5893
ltoes -8.1875
854
root -1.03272 18.1243 6.03202 0.268751 -3.58376 -4.69817
lowerback 3.78074 0.598635 2.40815
upperback -1.28481 0.969068 1.42243
thorax -3.42895 0.446077 0.0497791
lowerneck -10.7827 -0.930835 -0.66643
upperneck 17.2896 -1.41089 1.34879
head 7.0809 -0.603509 0.416542
rclavicle 1.47271e-014 1.99779e-014
rhumerus -48.0134 -4.18578 -85.4821
rradius 42.3224
rwrist 13.512
rhand -8.20386 -25.883
rfingers 7.12502
rthumb 17.7127 304.904
lclavicle 1.47271e-014 1.99779e-014
lhumerus -43.9118 4.78097 89.235
lradius 40.3723
lwrist -8.08787
lhand -6.54202 -28.672
lfingers 7.12502
lthumb 19.3112 0.389175
rfemur 0 0 0
rtibia 0
rfoot 0 0
rtoes 0
lfemur 18.9308 -8.48489 -12.7503
ltibia -18.0863
lfoot -5.80081 22.6235
ltoes -8.09077
855
root -1.0319 18.1234 6.02499 0.23009 -3.61027 -4.71297
lowerback 3.82803 0.61093 2.46075
upperback -1.27006 0.989109 1.41039
thorax -3.43905 0.454747 0.00613648
lowerneck -10.8245 -0.951122 -0.550365
upperneck 17.3167 -1.43689 1.2229
head 7.09561 -0.619295 0.353952
rclavicle -9.67212e-015 -1.83876e-014
rhumerus -48.0447 -4.18854 -85.6524
rradius 42.3236
rwrist 13.5528
rhand -8.264 -26.094
rfingers 7.12502
rthumb 17.6548 304.688
lclavicle -9.67212e-015 -1.83876e-014
lhumerus -43.9823 4.89966 89.1037
lradius 40.289
lwrist -8.31203
lhand -5.52886 -27.875
lfingers 7.12502
lthumb 20.2852 1.08571
rfemur 0 0 0
rtibia 0
rfoot 0 0
rtoes 0
lfemur 18.9399 -8.39471 -12.7287
ltibia -18.0552
lfoot -5.77225 22.5482
ltoes -8.32355
856
root -1.03055 18.1243 6.01636 0.224304 -3.61588 -4.69037
lowerback 3.89392 0.627685 2.49985
upperback -1.29649 1.01563 1.37923
thorax -3.50192 0.465951 -0.0505464
lowerneck -10.8038 -0.97677 -0.482671
upperneck 17.3232 -1.47683 1.18068
head 7.09362 -0.637863 0.325457
rclavicle 6.4605e-016 3.27995e-015
rhumerus -48.1294 -4.22226 -85.7889
rradius 42.3495
rwrist 13.5961
rhand -8.27017 -26.3278
rfingers 7.12502
rthumb 17.6489 304.453
lclavicle 6.4605e-016 3.27995e-015
lhumerus -44.0458 4.95363 89.0142
lradius 40.1933
lwrist -8.39287
lhand -5.52826 -28.194
lfingers 7.12502
lthumb 20.2858 0.766582
rfemur 0 0 0
rtibia 0
rfoot 0 0
rtoes 0
lfemur 18.9141 -8.32611 -12.7424
ltibia -18.0564
lfoot -5.7348 22.4816
ltoes -8.51151
857
root -1.02816 18.126 6.00668 0.216544 -3.59757 -4.68747
lowerback 3.96573 0.625312 2.55455
upperback -1.31377 1.0183 1.37261
thorax -3.55932 0.465287 -0.0891363
lowerneck -10.7915 -0.983002 -0.486597
upperneck 17.3349 -1.48649 1.18951
head 7.09543 -0.641972 0.328118
rclavicle 2.38231e-015 1.08338e-014
rhumerus -48.2223 -4.19018 -85.8941
rradius 42.3946
rwrist 13.663
rhand -8.21803 -26.3513
rfingers 7.12502
rthumb 17.699 304.434
lclavicle 2.38231e-015 1.08338e-014
lhumerus -44.0399 5.04701 88.9666
lradius 40.0836
lwrist -8.29461
lhand -6.47232 -28.9864
lfingers 7.12502
lthumb 19.3783 0.0680603
rfemur 0 0 0
rtibia 0
rfoot 0 0
rtoes 0
lfemur 18.8908 -8.29442 -12.7374
ltibia -18.0833
lfoot -5.66079 22.4479
ltoes -8.4952
858
root -1.02731 18.1265 5.99761 0.175439 -3.56261 -4.72991
lowerback 4.05109 0.607425 2.61434
upperback -1.30892 1.0018 1.40195
thorax -3.60246 0.455628 -0.0922268
lowerneck -10.8332 -0.970603 -0.518862
upperneck 17.4042 -1.46487 1.19218
head 7.12531 -0.632983 0.33607
rclavicle -6.89845e-015 7.05686e-015
rhumerus -48.2821 -4.1191 -85.981
rradius 42.4154
rwrist 13.6639
rhand -8.31541 -26.221
rfingers 7.12502
rthumb 17.6053 304.556
lclavicle -6.89845e-015 7.05686e-015
lhumerus -44.0385 5.26931 88.8722
lradius 40.0301
lwrist -8.36949
lhand -7.10515 -29.1707
lfingers 7.12502
lthumb 18.7697 -0.0562279
rfemur 0 0 0
rtibia 0
rfoot 0 0
rtoes 0
lfemur 18.9002 -8.19812 -12.6685
ltibia -18.106
lfoot -5.53252 22.3284
ltoes -8.51307
859
root -1.02747 18.1269 5.98987 0.143867 -3.51662 -4.73481
lowerback 4.11351 0.595091 2.61983
upperback -1.30342 0.988458 1.41782
thorax -3.63251 0.44876 -0.0787326
lowerneck -10.8534 -0.958394 -0.505692
upperneck 17.4342 -1.45141 1.19497
head 7.1384 -0.62518 0.335926
rclavicle -9.68299e-015 -4.37326e-015
rhumerus -48.3014 -4.0941 -86.0522
rradius 42.4102
rwrist 13.658
rhand -8.36405 -26.1615
rfingers 7.12502
rthumb 17.5585 304.611
lclavicle -9.68299e-015 -4.37326e-015
lhumerus -44.0388 5.52763 88.7376
lradius 39.9893
lwrist -8.56201
lhand -7.20473 -29.4118
lfingers 7.12502
lthumb 18.6739 -0.288159
rfemur 0 0 0
rtibia 0
rfoot 0 0
rtoes 0
lfemur 18.8931 -8.13045 -12.6393
ltibia -18.1119
lfoot -5.44885 22.2161
ltoes -8.42089
860
root -1.02749 18.1285 5.98242 0.176315 -3.48125 -4.72898
lowerback 4.10717 0.588371 2.60837
upperback -1.31623 0.979313 1.42727
thorax -3.64272 0.444402 -0.0619136
lowerneck -10.8032 -0.959229 -0.491398
upperneck 17.3775 -1.45947 1.22138
head 7.11132 -0.62622 0.341645
rclavicle -1.31027e-014 -2.60408e-014
rhumerus -48.3071 -4.06992 -86.1222
rradius 42.4111
rwrist 13.7987
rhand -8.24564 -26.2338
rfingers 7.12502
rthumb 17.6725 304.549
lclavicle -1.31027e-014 -2.60408e-014
lhumerus -44.0062 5.73903 88.633
lradius 39.9389
lwrist -8.6577
lhand -7.27532 -29.5906
lfingers 7.12502
lthumb 18.606 -0.460458
rfemur 0 0 0
rtibia 0
rfoot 0 0
rtoes 0
lfemur 18.8075 -8.10533 -12.6222
ltibia -18.0979
lfoot -5.39353 22.1782
ltoes -8.26785
861
root -1.02744 18.1316 5.97478 0.224914 -3.47382 -4.69208
lowerback 4.06784 0.591295 2.56113
upperback -1.32949 0.979396 1.42474
thorax -3.6349 0.445505 -0.0376882
lowerneck -10.7376 -0.976521 -0.478046
upperneck 17.3263 -1.48877 1.24106
head 7.08347 -0.638201 0.343441
rclavicle -3.18211e-015 -2.68359e-015
rhumerus -48.3122 -4.05521 -86.1944
rradius 42.4398
rwrist 13.974
rhand -8.28437 -26.3279
rfingers 7.12502
rthumb 17.6352 304.452
lclavicle -3.18211e-015 -2.68359e-015
lhumerus -43.9658 5.86137 88.5603
lradius 39.9304
lwrist -8.66661
lhand -7.44081 -29.5695
lfingers 7.12502
lthumb 18.4468 -0.424121
rfemur 0 0 0
rtibia 0
rfoot 0 0
rtoes 0
lfemur 18.6981 -8.10408 -12.6452
ltibia -18.0681
lfoot -5.41127 22.1745
ltoes -8.18794
862
root -1.02628 18.1343 5.96836 0.25665 -3.47035 -4.63642
lowerback 3.99249 0.597086 2.52499
upperback -1.31256 0.981124 1.40418
thorax -3.57493 0.447669 -0.0378109
lowerneck -10.7066 -1.00979 -0.43949
upperneck 17.2952 -1.54291 1.2505
head 7.06824 -0.661157 0.33529
rclavicle 4.45868e-015 -1.09332e-014
rhumerus -48.2619 -4.07595 -86.2628
rradius 42.4371
rwrist 13.9829
rhand -8.45651 -26.3387
rfingers 7.12502
rthumb 17.4695 304.426
lclavicle 4.45868e-015 -1.09332e-014
lhumerus -43.8832 5.91352 88.5045
lradius 39.934
lwrist -8.60278
lhand -7.63195 -29.5413
lfingers 7.12502
lthumb 18.2629 -0.378639
rfemur 0 0 0
rtibia 0
rfoot 0 0
rtoes 0
lfemur 18.6132 -8.10209 -12.6971
ltibia -18.0327
lfoot -5.49019 22.1447
ltoes -8.05791
863
root -1.02415 18.1354 5.96418 0.29908 -3.43871 -4.62227
lowerback 3.84534 0.586608 2.54212
upperback -1.27406 0.961328 1.40102
thorax -3.45206 0.438898 -0.0474205
lowerneck -10.6774 -1.02862 -0.391535
upperneck 17.2306 -1.57266 1.22916
head 7.0419 -0.674671 0.317928
rclavicle -4.87178e-015 -1.49089e-014
rhumerus -48.1638 -4.09256 -86.2936
rradius 42.4092
rwrist 13.989
rhand -8.36841 -26.3086
rfingers 7.12502
rthumb 17.5543 304.464
lclavicle -4.87178e-015 -1.49089e-014
lhumerus -43.7452 6.02362 88.4432
lradius 39.9095
lwrist -8.56319
lhand -7.8461 -29.5534
lfingers 7.12502
lthumb 18.0569 -0.371632
rfemur 0 0 0
rtibia 0
rfoot 0 0
rtoes 0
lfemur 18.5299 -8.09849 -12.7052
ltibia -18.0077
lfoot -5.50772 22.0958
ltoes -7.9656
